<?xml version="1.0" encoding="utf-8"?>
<!-- Generator: Adobe Illustrator 24.3.0, SVG Export Plug-In . SVG Version: 6.00 Build 0)  -->
<svg version="1.1" id="Calque_1" xmlns="http://www.w3.org/2000/svg" xmlns:xlink="http://www.w3.org/1999/xlink" x="0px" y="0px"
	 viewBox="0 0 400 381" style="enable-background:new 0 0 400 381;" xml:space="preserve">
<style type="text/css">
	.st0{fill:#00C3A5;}
</style>
<path class="st0" d="M221.8,307.9l62.9,73.1l62.7-45.5l-61.2-101.2C258.6,251.3,231.5,284.3,221.8,307.9L221.8,307.9z M131.5,380.9
	C183.1,275.5,281.8,197.5,400,174.2l-24-74C232.5,116.4,110.5,203.3,45.2,325.4C45.2,325.4,131.5,380.9,131.5,380.9z M150.3,129.6
	L23.9,99.8L0,173.6l87.7,37c18-18.2,38.1-34.1,60.2-47.6c30-18.4,56.1-30.6,100.6-45.8L238.7,0h-77.5L150.3,129.6L150.3,129.6z"/>
</svg>
